<?xml version="1.0" encoding="utf-8"?>
<!-- Generator: Adobe Illustrator 18.1.1, SVG Export Plug-In . SVG Version: 6.00 Build 0)  -->
<!DOCTYPE svg PUBLIC "-//W3C//DTD SVG 1.1//EN" "http://www.w3.org/Graphics/SVG/1.1/DTD/svg11.dtd">
<svg version="1.1" id="Layer_1" xmlns="http://www.w3.org/2000/svg" xmlns:xlink="http://www.w3.org/1999/xlink" x="0px" y="0px"
	 width="8px" height="16px" viewBox="0 0 8 16" enable-background="new 0 0 8 16" xml:space="preserve">
<path fill="#287481" d="M4,16c0.1,0,0.2-0.1,0.2-0.1l3.7-5.4C8,10.4,8,10.3,8,10.2C7.9,10.1,7.8,10,7.7,10H0.3
	c-0.1,0-0.2,0.1-0.3,0.1c-0.1,0.1,0,0.2,0,0.3l3.7,5.4C3.8,15.9,3.9,16,4,16z"/>
<path fill="#287481" d="M4,0C3.9,0,3.8,0.1,3.8,0.1L0.1,5.5C0,5.6,0,5.7,0,5.8C0.1,5.9,0.2,6,0.3,6h7.4C7.8,6,7.9,5.9,8,5.8
	c0.1-0.1,0-0.2,0-0.3L4.2,0.1C4.2,0.1,4.1,0,4,0z"/>
</svg>
